<svg width="20" height="20" viewBox="0 0 20 20" fill="none" xmlns="http://www.w3.org/2000/svg">
<rect width="20" height="20" fill="#E5E5E5"/>
<g id="Home" clip-path="url(#clip0_1622_4117)">
<rect width="375" height="1057" transform="translate(-242 -411)" fill="#F9F9F9"/>
<g id="Categories">
<g id="Frame 5">
<rect x="-12" y="-6" width="74" height="32" rx="10" fill="white"/>
<g id="Furniture/Single, Bed">
<g id="Group">
<g id="Group_2">
<path id="Path" fill-rule="evenodd" clip-rule="evenodd" d="M16.6665 10H3.33317C2.41234 10 1.6665 10.7458 1.6665 11.6667V14.1108C1.6665 14.5708 2.03984 14.9442 2.49984 14.9442H17.4998C17.9598 14.9442 18.3332 14.5708 18.3332 14.1108V11.6667C18.3332 10.7458 17.5873 10 16.6665 10Z" stroke="#828A89" stroke-width="1.4" stroke-linecap="round" stroke-linejoin="round"/>
<path id="Path_2" d="M3.33301 10V5.7775C3.33301 4.39666 4.45217 3.2775 5.83301 3.2775H14.1663C15.5472 3.2775 16.6663 4.39666 16.6663 5.7775V10" stroke="#828A89" stroke-width="1.4" stroke-linecap="round" stroke-linejoin="round"/>
<path id="Path_3" d="M17.4997 15V16.6083" stroke="#828A89" stroke-width="1.4" stroke-linecap="round" stroke-linejoin="round"/>
<path id="Path_4" d="M2.49967 15V16.6083" stroke="#828A89" stroke-width="1.4" stroke-linecap="round" stroke-linejoin="round"/>
<path id="Path_5" d="M6.25 10V10C6.25 8.61917 7.36917 7.5 8.75 7.5H11.25C12.6308 7.5 13.75 8.61917 13.75 10V10" stroke="#828A89" stroke-width="1.4" stroke-linecap="round" stroke-linejoin="round"/>
</g>
</g>
</g>
</g>
</g>
</g>
<defs>
<clipPath id="clip0_1622_4117">
<rect width="375" height="1057" fill="white" transform="translate(-242 -411)"/>
</clipPath>
</defs>
</svg>
